<svg xmlns="http://www.w3.org/2000/svg" xmlns:xlink="http://www.w3.org/1999/xlink" viewBox="0 0 95.481 95.481" height="95.481" width="95.481" data-background-color="#eaeaea" preserveAspectRatio="xMidYMid meet" id="tight-bounds"><g><svg viewBox="0 0 95.481 95.481" height="95.481" width="95.481"><g><svg viewBox="0 0 95.481 95.481" height="95.481" width="95.481"><g id="textblocktransform"><svg viewBox="0 0 95.481 95.481" height="95.481" width="95.481" id="textblock"><g><svg viewBox="0 0 95.481 95.481" height="95.481" width="95.481"><g><svg viewBox="0 0 95.481 95.481" height="95.481" width="95.481"><g><svg/></g><g id="icon-0"><svg viewBox="0 0 95.481 95.481" height="95.481" width="95.481"><g><path xmlns="http://www.w3.org/2000/svg" d="M28.644 95.481c-15.82 0-28.644-12.824-28.644-28.644v-38.193c0-15.82 12.824-28.644 28.644-28.644h38.193c15.82 0 28.644 12.824 28.644 28.644v38.193c0 15.82-12.824 28.644-28.644 28.644z" fill="#f6b519" fill-rule="nonzero" stroke="none" stroke-width="1" stroke-linecap="butt" stroke-linejoin="miter" stroke-miterlimit="10" stroke-dasharray="" stroke-dashoffset="0" font-family="none" font-weight="none" font-size="none" text-anchor="none" style="mix-blend-mode: normal" data-fill-palette-color="accent"/></g><g transform="matrix(1,0,0,1,19.0962,21.369734191635686)"><svg viewBox="0 0 57.288599999999995 52.74153161672862" height="52.74153161672862" width="57.288599999999995"><g><svg xmlns="http://www.w3.org/2000/svg" xml:space="preserve" viewBox="9.397998809814453 12.339999198913574 80.1930160522461 73.82799530029297" x="0" y="0" height="52.74153161672862" width="57.288599999999995" class="icon-b-0" data-fill-palette-color="quaternary" id="b-0"><path d="M55.894 49.046v1.992c0 2.509 1.142 3.675 3.328 3.675h2.757c2.606 0 4.379 2.119 4.379 4.375v2.318c0 2.509-1.137 4.021-3.795 4.021h-3.196c-2.796 0-4.253-1.278-4.253-3.889V59.38c0-2.059-1.479-3.41-3.281-3.41h-4.759c-2.38 0-2.959 1.608-2.959 3.41v4.249c0 2.252 1.351 3.024 3.088 3.024h2.931c3.31 0 4.9 1.452 4.9 3.77v1.601c0 2.634 1.498 3.632 3.881 3.632h4.915c2.433 0 3.622-1.284 3.622-3.479v-1.796c0-3.023 1.676-3.988 4.893-3.988h3.384c1.866 0 2.725-1.158 2.725-2.702v-6.24c0-2.058-1.158-3.023-3.409-3.023h-4.054c-2.419 0-4.588-1.829-4.588-5.21v-1.992c0-2.509-1.142-3.675-3.329-3.675h-2.757c-2.606 0-4.379-2.118-4.379-4.374v-2.318c0-2.509 1.138-4.021 3.796-4.021h3.195c2.796 0 4.254 1.278 4.254 3.889v2.158c0 2.059 1.479 3.409 3.281 3.409h4.758c2.38 0 2.959-1.608 2.959-3.409v-4.249c0-2.251-1.351-3.023-3.088-3.023h-2.931c-3.31 0-4.9-1.452-4.9-3.77v-1.516c0-2.633-1.425-3.717-3.808-3.717h-4.988c-2.433 0-3.622 1.284-3.622 3.48v1.795c0 3.023-1.676 3.988-4.893 3.988h-3.385c-1.865 0-2.724 1.158-2.724 2.702v6.24c0 2.059 1.157 3.024 3.41 3.024h4.052c2.421-0.003 4.59 1.826 4.59 5.207M86.07 54.482a3.52 3.52 0 0 0 3.521-3.521v-2.688a3.52 3.52 0 0 0-3.521-3.522h-2.688a3.52 3.52 0 0 0-3.521 3.522v2.688a3.52 3.52 0 0 0 3.521 3.521z" fill="#18191b" data-fill-palette-color="quaternary"/><path d="M36.547 31.871h3.008c2.251 0 3.409-0.965 3.409-3.023v-1.974c0.113-3.194 2.224-4.658 4.578-4.658h3.008c2.253 0 3.41-0.965 3.41-3.023v-4.151c0-1.544-0.858-2.702-2.724-2.702h-5.695c-1.846 0-2.631 0.855-2.631 2.782v2.434c0 2.195-1.681 4.253-4.171 4.364h-4.194c-1.845 0-2.631 0.855-2.631 2.782v2.508c0 2.256-1.771 4.375-4.379 4.375h-2.757c-2.188 0-3.329 1.165-3.329 3.674v3.071c0 3.381-2.168 5.21-4.588 5.21h-4.054c-2.251 0-3.409 0.965-3.409 3.023v6.766c0 2.059 1.158 3.023 3.409 3.023h4.054c2.42 0 4.588 1.049 4.588 4.431v2.412c0 2.509 1.142 3.674 3.329 3.674h2.757c2.607 0 4.379 2.119 4.379 4.375v2.539c0 1.927 0.786 2.782 2.631 2.782h4.213l-0.021 0.024c2.491 0.11 4.171 2.169 4.171 4.364v2.433c0 1.927 0.785 2.782 2.631 2.782h5.694c1.866 0 2.725-1.158 2.725-2.702v-4.151c0-2.059-1.158-3.024-3.409-3.024H47.54c-2.348 0-4.453-1.457-4.576-4.633v-2.053c0-2.059-1.158-3.023-3.409-3.023h-3.008c-2.421 0-4.59-1.828-4.59-5.209V59.74c0-2.509 1.143-3.674 3.33-3.674h2.756c2.607 0 4.38-2.119 4.38-4.375V48.2c0-2.256-1.772-4.375-4.38-4.375h-2.756c-2.188 0-3.33-1.166-3.33-3.674v-3.36c0-3.38 2.169-4.92 4.59-4.92" fill="#18191b" data-fill-palette-color="quaternary"/></svg></g></svg></g></svg></g></svg></g></svg></g></svg></g></svg></g></svg></g><defs/></svg>